<svg width="807" height="516" viewBox="0 0 807 516" fill="none" xmlns="http://www.w3.org/2000/svg">
<g filter="url(#filter0_d_3_2)">
<path d="M98.4865 481.507C83.0788 481.51 69.0385 472.687 62.6178 458.681C49.4544 429.967 28.6066 382.645 27.1905 367.993C23.8305 333.993 28.3605 282.143 31.1905 268.393C35.3705 247.993 53.8505 206.473 79.7705 183.393C105.69 160.313 116 159.673 137.13 128.003C158.26 96.3329 189.911 60.3129 205.001 45.9129C220.091 31.5129 228.761 27.9129 243.881 26.4729C259.001 25.0329 263.321 26.4729 278.441 36.5529C293.561 46.6329 301.44 66.0729 314.44 79.7529C327.44 93.4329 325.24 94.1529 333.88 94.8729C342.52 95.5929 349.72 93.4329 358.36 90.5529C367 87.6729 377.11 76.8729 403 58.8729C428.89 40.8729 434 35.1129 457 33.6729C480 32.2329 496.6 31.5129 511.72 48.7929C526.84 66.0729 532.8 83.3529 539.18 101.353C545.56 119.353 544.12 125.833 552.76 133.033C561.4 140.233 598.13 156.793 621.17 169.033C644.21 181.273 699.671 216.553 720.901 261.913C742.131 307.273 753.641 310.913 762.281 363.433C766.315 387.959 769.879 415.29 772.532 437.457C775.342 460.937 756.898 481.338 733.251 481.344L98.4865 481.507Z" fill="url(#paint0_linear_3_2)"/>
<g filter="url(#filter1_d_3_2)">
<path d="M380.59 231.913C377.23 231.913 363.59 233.253 356.04 239.593C347.22 247.053 341.66 261.033 340.86 265.893C339.52 275.154 338.682 284.481 338.35 293.833C337.86 305.233 341.46 315.323 342.55 318.613C345.7 328.153 358.21 343.033 366.85 345.433C375.49 347.833 397.51 348.493 403.75 345.613C409.99 342.733 420.75 332.153 422.59 325.993C424.86 318.343 430.24 296.993 427.36 279.243C424.5 261.653 420.511 247.583 412.201 240.553C401.711 231.673 380.59 231.913 380.59 231.913Z" fill="black" fill-opacity="0.75"/>
<path d="M104.11 220.393C84.1105 224.233 78.3105 235.513 73.5105 242.233C68.7105 248.953 58.6305 270.073 59.3505 284.233C60.0705 298.393 68.2305 320.473 75.1905 326.713C82.1505 332.953 99.4305 335.353 104.95 333.193C110.47 331.033 121.1 323.563 128.11 309.003C135.12 294.443 136.69 283.593 136.76 273.243C136.83 262.893 138.19 257.403 135.19 245.763C132.48 235.253 130.87 231.603 125.11 227.283C119.35 222.963 104.11 220.393 104.11 220.393Z" fill="black" fill-opacity="0.75"/>
<path d="M244.47 315.423C243.244 315.422 242.02 315.322 240.81 315.123C232.43 313.793 225.15 307.873 221.15 299.233L218 303.583C217.889 303.743 217.769 303.896 217.64 304.043C211.04 311.843 204.29 313.323 199.81 313.213C195.33 313.103 188.56 311.213 182.26 302.913C182.11 302.713 181.97 302.503 181.84 302.293L172.51 286.793C171.553 285.202 171.267 283.295 171.715 281.493C172.163 279.691 173.309 278.14 174.9 277.183C176.492 276.225 178.398 275.939 180.2 276.388C182.003 276.836 183.553 277.982 184.51 279.573L193.64 294.723C195.86 297.573 198.18 299.163 200.19 299.213C202.8 299.283 205.39 296.823 206.8 295.213L215 283.803C215.112 283.64 215.232 283.483 215.36 283.333C216.32 282.087 217.596 281.122 219.056 280.538C220.516 279.954 222.106 279.772 223.66 280.013C229.06 280.933 231.1 286.233 232.73 290.493C233.01 291.233 233.29 291.963 233.58 292.643L233.64 292.793C235.64 297.563 239.09 300.673 243.05 301.303C246.34 301.833 249.61 300.493 252.25 297.533L265.62 280.333C266.76 278.866 268.435 277.912 270.277 277.681C272.12 277.449 273.979 277.959 275.445 279.098C276.912 280.237 277.866 281.912 278.098 283.755C278.329 285.597 277.82 287.456 276.68 288.923L263.17 306.293C263.093 306.401 263.009 306.504 262.92 306.603C260.667 309.321 257.85 311.517 254.665 313.04C251.479 314.563 248.001 315.376 244.47 315.423V315.423Z" fill="black" fill-opacity="0.75"/>
</g>
<path d="M290.76 481.333C277.281 459.623 250.25 444.793 219.09 444.793C187.93 444.793 160.89 459.623 147.41 481.333H290.76Z" fill="white"/>
<g opacity="0.2">
<path d="M712.75 247.343C699.53 260.613 686.75 274.543 684.19 281.343C678.43 296.463 678.07 310.503 682.39 315.543C686.71 320.583 687.07 325.623 695.39 325.983C703.71 326.343 707.27 327.783 719.15 320.983C723.44 318.523 732.87 311.673 743.15 303.923C737.15 292.823 729.9 281.113 720.93 261.923C718.542 256.881 715.809 252.009 712.75 247.343V247.343Z" fill="black" fill-opacity="0.75"/>
<path d="M645 270.913C651.48 270.553 653.28 273.433 661.56 266.233C669.84 259.033 680.64 245.713 687.48 237.433C689.59 234.883 693.07 230.993 696.88 226.833C683.96 212.553 668.88 200.133 655.06 190.213C642.24 206.063 629 223.323 628.06 228.073C626.26 237.433 623.06 252.553 628.06 258.313C633.06 264.073 638.47 271.273 645 270.913Z" fill="black" fill-opacity="0.75"/>
<path d="M585.91 244.153C594.79 239.833 596.71 240.793 613.75 207.673C619.75 195.933 625.59 184.613 630.75 174.423C627.17 172.313 623.93 170.503 621.17 169.033C609.11 162.633 593.31 155.033 579.74 148.233C568 169.873 555.42 194.743 555.16 202.393C554.68 216.793 552.76 223.513 558.52 231.913C564.28 240.313 571.86 251.003 585.91 244.153Z" fill="black" fill-opacity="0.75"/>
</g>
</g>
<defs>
<filter id="filter0_d_3_2" x="0" y="0" width="806.815" height="515.507" filterUnits="userSpaceOnUse" color-interpolation-filters="sRGB">
<feFlood flood-opacity="0" result="BackgroundImageFix"/>
<feColorMatrix in="SourceAlpha" type="matrix" values="0 0 0 0 0 0 0 0 0 0 0 0 0 0 0 0 0 0 127 0" result="hardAlpha"/>
<feOffset dx="4" dy="4"/>
<feGaussianBlur stdDeviation="15"/>
<feComposite in2="hardAlpha" operator="out"/>
<feColorMatrix type="matrix" values="0 0 0 0 0 0 0 0 0 0 0 0 0 0 0 0 0 0 0.25 0"/>
<feBlend mode="normal" in2="BackgroundImageFix" result="effect1_dropShadow_3_2"/>
<feBlend mode="normal" in="SourceGraphic" in2="effect1_dropShadow_3_2" result="shape"/>
</filter>
<filter id="filter1_d_3_2" x="33.3139" y="194.393" width="428.874" height="187.122" filterUnits="userSpaceOnUse" color-interpolation-filters="sRGB">
<feFlood flood-opacity="0" result="BackgroundImageFix"/>
<feColorMatrix in="SourceAlpha" type="matrix" values="0 0 0 0 0 0 0 0 0 0 0 0 0 0 0 0 0 0 127 0" result="hardAlpha"/>
<feOffset dx="4" dy="4"/>
<feGaussianBlur stdDeviation="15"/>
<feComposite in2="hardAlpha" operator="out"/>
<feColorMatrix type="matrix" values="0 0 0 0 0 0 0 0 0 0 0 0 0 0 0 0 0 0 0.25 0"/>
<feBlend mode="normal" in2="BackgroundImageFix" result="effect1_dropShadow_3_2"/>
<feBlend mode="normal" in="SourceGraphic" in2="effect1_dropShadow_3_2" result="shape"/>
</filter>
<linearGradient id="paint0_linear_3_2" x1="-5.75454" y1="49.6226" x2="731.509" y2="576.706" gradientUnits="userSpaceOnUse">
<stop stop-color="#009B3E"/>
<stop offset="1" stop-color="#002810"/>
</linearGradient>
</defs>
</svg>
